<svg width="40" height="40" viewBox="0 0 40 40" fill="none" xmlns="http://www.w3.org/2000/svg">
<g id="twitter 1" clip-path="url(#clip0_63_31)">
<g id="Group">
<path id="Vector" d="M20 0C8.95469 0 0 8.95469 0 20C0 31.0453 8.95469 40 20 40C31.0453 40 40 31.0453 40 20C40 8.95469 31.0453 0 20 0Z" fill="white"/>
<path id="Vector_2" d="M22.188 18.1901L30.7498 8.23779H28.7209L21.2867 16.8793L15.3491 8.23779H8.5007L17.4796 21.3052L8.5007 31.7418H10.5297L18.3804 22.6161L24.651 31.7418H31.4993L22.1875 18.1901H22.188ZM11.2607 9.76519H14.3771L28.7218 30.2839H25.6054L11.2607 9.76519Z" fill="#040305"/>
</g>
</g>
<defs>
<clipPath id="clip0_63_31">
<rect width="40" height="40" fill="white"/>
</clipPath>
</defs>
</svg>
